<svg id="icn_adsl_quick" xmlns="http://www.w3.org/2000/svg" width="70" height="70" viewBox="0 0 70 70">
  <g id="icn_adsl_quick-2" data-name="icn_adsl_quick" transform="translate(-103 -644)" style="mix-blend-mode: normal;isolation: isolate">
    <g id="Ellipse_26" data-name="Ellipse 26" transform="translate(103 644)" fill="none" stroke="#bbbbba" stroke-width="1">
      <circle cx="35" cy="35" r="35" stroke="none"/>
      <circle cx="35" cy="35" r="34.5" fill="none"/>
    </g>
    <rect id="Rectangle_1" data-name="Rectangle 1" width="39" height="39" transform="translate(119 660)" fill="none"/>
    <path id="Path_1" data-name="Path 1" d="M39.307,40.283V32.749A4.078,4.078,0,0,0,35.2,28.713H21.6V18.152a3.743,3.743,0,1,0-1.9,0V28.721H6.117a4.078,4.078,0,0,0-4.112,4.037v7.526a4.078,4.078,0,0,0,4.112,4.036H35.2a4.07,4.07,0,0,0,4.1-4.034ZM18.811,14.6a1.848,1.848,0,1,1,1.883,1.813h-.035A1.83,1.83,0,0,1,18.811,14.6Zm18.6,25.681a2.2,2.2,0,0,1-2.219,2.177H6.116A2.2,2.2,0,0,1,3.9,40.283V32.749a2.2,2.2,0,0,1,2.219-2.178H35.2a2.2,2.2,0,0,1,2.219,2.178v7.534Z" transform="translate(117.844 653.785)" fill="#e00800"/>
    <path id="Path_2" data-name="Path 2" d="M54.8,69.286H44.122a.933.933,0,1,0,0,1.865H54.8a.933.933,0,1,0,0-1.865Z" transform="translate(94.119 620.086)" fill="#e00800"/>
    <ellipse id="Ellipse_1" data-name="Ellipse 1" cx="1.214" cy="1.191" rx="1.214" ry="1.191" transform="translate(128.314 689.113)" fill="#e00800"/>
    <path id="Path_4" data-name="Path 4" d="M61.408,16.668a.758.758,0,0,0,.424.135.739.739,0,0,0,.6-.306,4.122,4.122,0,0,0,0-4.822.746.746,0,0,0-1.025-.17.715.715,0,0,0-.182.994l.008.012a2.694,2.694,0,0,1,0,3.152.7.7,0,0,0,.148.985Z" transform="translate(83.805 653.449)" fill="#bbbbba"/>
    <path id="Path_5" data-name="Path 5" d="M11.108,2.29a.948.948,0,0,0-1.322.22,12.128,12.128,0,0,0,0,14.2.952.952,0,0,0,.773.395.937.937,0,0,0,.773-1.472,10.3,10.3,0,0,1,0-12.056A.914.914,0,0,0,11.126,2.3Z" transform="translate(114.686 658.783)" fill="#bbbbba"/>
    <path id="Path_6" data-name="Path 6" d="M25.483,11.694a.963.963,0,0,0-1.322.22,5.317,5.317,0,0,0,0,6.221.953.953,0,0,0,.773.394.936.936,0,0,0,.773-1.472,3.475,3.475,0,0,1,0-4.067.909.909,0,0,0-.189-1.272Z" transform="translate(105.66 653.363)" fill="#bbbbba"/>
  </g>
</svg>
