<svg id="icn_more_quick" xmlns="http://www.w3.org/2000/svg" width="70" height="70" viewBox="0 0 70 70">
  <g id="icn_more_quick-2" data-name="icn_more_quick" transform="translate(-266 -644)" style="mix-blend-mode: normal;isolation: isolate">
    <g id="Ellipse_26" data-name="Ellipse 26" transform="translate(266 644)" fill="none" stroke="#bbbbba" stroke-width="1">
      <circle cx="35" cy="35" r="35" stroke="none"/>
      <circle cx="35" cy="35" r="34.5" fill="none"/>
    </g>
    <path id="Path_24751" data-name="Path 24751" d="M30.968,9.32H25.548a5.718,5.718,0,0,0,2.39-2.732A3.567,3.567,0,0,0,26.93,2.546a3.013,3.013,0,0,0-2.59-.7c-2.41.452-4.774,3.618-6.118,5.736C16.878,5.469,14.514,2.3,12.1,1.853a3.013,3.013,0,0,0-2.59.7A3.567,3.567,0,0,0,8.506,6.59,5.718,5.718,0,0,0,10.9,9.32H5.476A3.476,3.476,0,0,0,2,12.8v3.316a3.476,3.476,0,0,0,2.317,3.263V31.239a3.476,3.476,0,0,0,3.476,3.476H28.651a3.476,3.476,0,0,0,3.476-3.476V19.376a3.476,3.476,0,0,0,2.317-3.263V12.8A3.476,3.476,0,0,0,30.968,9.32ZM15.377,17.271V11.638h5.689v5.634Zm5.689,2.317V32.4H15.377V19.589Zm3.7-15.457a.907.907,0,0,1,.176-.013.7.7,0,0,1,.481.2,1.251,1.251,0,0,1,.337,1.476c-.416,1.129-2.086,2.417-5.425,2.8,1.371-2.088,3.181-4.233,4.431-4.466Zm-13.749.18a.7.7,0,0,1,.484-.192.907.907,0,0,1,.178.019c1.25.232,3.06,2.378,4.429,4.46-3.343-.387-5.009-1.676-5.425-2.8a1.253,1.253,0,0,1,.334-1.482ZM4.317,12.8a1.159,1.159,0,0,1,1.159-1.159H13.06v5.634H5.476a1.159,1.159,0,0,1-1.159-1.159ZM6.635,31.239V19.589H13.06V32.4H7.794A1.159,1.159,0,0,1,6.635,31.239ZM28.651,32.4H23.384V19.589h6.425v11.65A1.159,1.159,0,0,1,28.651,32.4Zm3.476-16.285a1.159,1.159,0,0,1-1.159,1.159H23.384V11.638h7.584A1.159,1.159,0,0,1,32.127,12.8Z" transform="translate(282.277 661.607)" fill="#e00800" stroke="#f5ffec" stroke-width="0.2"/>
    <g id="Ellipse_50" data-name="Ellipse 50" transform="translate(298.525 661.68)" fill="#bbbbba" stroke="#bbbbba" stroke-width="1">
      <circle cx="1.975" cy="1.975" r="1.975" stroke="none"/>
      <circle cx="1.975" cy="1.975" r="1.475" fill="none"/>
    </g>
  </g>
</svg>
