<svg id="icn_4g_quick" xmlns="http://www.w3.org/2000/svg" width="70" height="70" viewBox="0 0 70 70">
  <g id="Path_26976" data-name="Path 26976" fill="none">
    <path d="M35,0A35,35,0,1,1,0,35,35,35,0,0,1,35,0Z" stroke="none"/>
    <path d="M 35 1 C 30.40959167480469 1 25.9570198059082 1.898818969726562 21.7659797668457 3.671478271484375 C 17.71739959716797 5.383880615234375 14.08119964599609 7.835548400878906 10.95837020874023 10.95837020874023 C 7.835548400878906 14.08119964599609 5.383880615234375 17.71739959716797 3.671478271484375 21.7659797668457 C 1.898818969726562 25.9570198059082 1 30.40959167480469 1 35 C 1 39.59040832519531 1.898818969726562 44.0429801940918 3.671478271484375 48.2340202331543 C 5.383880615234375 52.28260040283203 7.835548400878906 55.91880035400391 10.95837020874023 59.04162979125977 C 14.08119964599609 62.16445159912109 17.71739959716797 64.61611938476562 21.7659797668457 66.32852172851562 C 25.9570198059082 68.10118103027344 30.40959167480469 69 35 69 C 39.59040832519531 69 44.0429801940918 68.10118103027344 48.2340202331543 66.32852172851562 C 52.28260040283203 64.61611938476562 55.91880035400391 62.16445159912109 59.04162979125977 59.04162979125977 C 62.16445159912109 55.91880035400391 64.61611938476562 52.28260040283203 66.32852172851562 48.2340202331543 C 68.10118103027344 44.0429801940918 69 39.59040832519531 69 35 C 69 30.40959167480469 68.10118103027344 25.9570198059082 66.32852172851562 21.7659797668457 C 64.61611938476562 17.71739959716797 62.16445159912109 14.08119964599609 59.04162979125977 10.95837020874023 C 55.91880035400391 7.835548400878906 52.28260040283203 5.383880615234375 48.2340202331543 3.671478271484375 C 44.0429801940918 1.898818969726562 39.59040832519531 1 35 1 M 35 0 C 54.32995986938477 0 70 15.67004013061523 70 35 C 70 54.32995986938477 54.32995986938477 70 35 70 C 15.67004013061523 70 0 54.32995986938477 0 35 C 0 15.67004013061523 15.67004013061523 0 35 0 Z" stroke="none" fill="#bbbbba"/>
  </g>
  <g id="Group_17018" data-name="Group 17018" transform="translate(-507.982 -726)">
    <path id="Path_26988" data-name="Path 26988" d="M30.634,40.055a1.378,1.378,0,0,0-1.379,1.379v5.055H26.038a.46.46,0,0,1-.46-.46v-4.6a1.379,1.379,0,0,0-2.757,0v4.6a3.22,3.22,0,0,0,3.217,3.217h3.217v4.136a1.379,1.379,0,0,0,2.757,0V41.434a1.378,1.378,0,0,0-1.377-1.379Z" transform="translate(508 725)" fill="#e00800"/>
    <path id="Path_26989" data-name="Path 26989" d="M37.068,42.812h4.6a1.379,1.379,0,1,0,.074-2.757H37.068a3.22,3.22,0,0,0-3.217,3.217v8.272a3.22,3.22,0,0,0,3.217,3.217h4.6a1.378,1.378,0,0,0,1.379-1.379V47.868a1.378,1.378,0,0,0-1.379-1.379H38.906a1.379,1.379,0,1,0-.074,2.757c.024,0,.049,0,.074,0h1.379V52H37.068a.46.46,0,0,1-.46-.46V43.272a.46.46,0,0,1,.46-.46" transform="translate(508 725)" fill="#e00800"/>
    <path id="Path_26990" data-name="Path 26990" d="M51.773,38.679h-.919V37.76a1.379,1.379,0,1,0-2.757-.074c0,.024,0,.049,0,.074v.919h-.919a1.379,1.379,0,1,0-.074,2.757H48.1v.919a1.379,1.379,0,1,0,2.757.074c0-.024,0-.049,0-.074v-.919h.919a1.379,1.379,0,0,0,0-2.757Z" transform="translate(508 725)" fill="#bbbbba"/>
    <path id="Path_26991" data-name="Path 26991" d="M47.178,24.774a1.84,1.84,0,0,1-1.294-.535,18.417,18.417,0,0,0-25.9,0,1.839,1.839,0,1,1-2.593-2.608,22.089,22.089,0,0,1,31.081,0,1.838,1.838,0,0,1-1.294,3.143" transform="translate(508 725)" fill="#bbbbba"/>
    <path id="Path_26992" data-name="Path 26992" d="M42.219,29.691a1.834,1.834,0,0,1-1.294-.533,11.353,11.353,0,0,0-15.985,0,1.838,1.838,0,1,1-2.628-2.571l.04-.039a15.025,15.025,0,0,1,21.162,0A1.836,1.836,0,0,1,42.22,29.69Z" transform="translate(508 725)" fill="#bbbbba"/>
    <path id="Path_26993" data-name="Path 26993" d="M37.258,34.61a1.839,1.839,0,0,1-1.3-.542,4.392,4.392,0,0,0-6.048,0,1.839,1.839,0,1,1-2.645-2.556l.033-.033a7.965,7.965,0,0,1,11.265,0,1.839,1.839,0,0,1-1.305,3.134Z" transform="translate(508 725)" fill="#bbbbba"/>
  </g>
</svg>
