<svg id="icn_track_quick" xmlns="http://www.w3.org/2000/svg" width="70" height="70" viewBox="0 0 70 70">
  <g id="icn_track_quick-2" data-name="icn_track_quick" transform="translate(-757 -644)" style="mix-blend-mode: normal;isolation: isolate">
    <g id="Ellipse_26" data-name="Ellipse 26" transform="translate(757 644)" fill="none" stroke="#cacaca" stroke-width="1">
      <circle cx="35" cy="35" r="35" stroke="none"/>
      <circle cx="35" cy="35" r="34.5" fill="none"/>
    </g>
    <path id="Path_24745" data-name="Path 24745" d="M188.217,172.014l-1.068-1.169a72.712,72.712,0,0,1-5.372-6.623,12.994,12.994,0,0,1-1.613-2.913,8.559,8.559,0,0,1-.343-1.343,8.528,8.528,0,0,1,8.4-9.966,8.534,8.534,0,0,1,8.469,9.526c-.014.145-.039.295-.063.444a8.5,8.5,0,0,1-.343,1.338,13.063,13.063,0,0,1-1.618,2.918,75.169,75.169,0,0,1-5.372,6.623Zm0-19.116a5.657,5.657,0,0,0-5.565,4.792,6.015,6.015,0,0,0-.063.831,5.67,5.67,0,0,0,.082.952,5.523,5.523,0,0,0,.227.884,10.476,10.476,0,0,0,1.266,2.222,62.386,62.386,0,0,0,4.053,5.1,62.36,62.36,0,0,0,4.053-5.1,10.252,10.252,0,0,0,1.266-2.222,6.1,6.1,0,0,0,.227-.884c.015-.1.029-.188.039-.285a6.175,6.175,0,0,0,.039-.667A5.628,5.628,0,0,0,188.217,152.9Z" transform="translate(597.371 511.596)" fill="#e00800" stroke="#fff" stroke-width="0.5"/>
    <path id="Path_24746" data-name="Path 24746" d="M103.6,344.726H89.224l-.015-1.435a1.691,1.691,0,0,0-3.382,0l-.014,1.435H80a3.548,3.548,0,0,1-2.406-.937,3.282,3.282,0,0,1-1.092-2.435V324.591a3.306,3.306,0,0,1,1.082-2.435A3.531,3.531,0,0,1,80,321.2h4.251l.208,1.2a6.306,6.306,0,0,0,.227.889,10.484,10.484,0,0,0,1.266,2.222,62.624,62.624,0,0,0,4.053,5.1,62.412,62.412,0,0,0,4.053-5.1,10.248,10.248,0,0,0,1.266-2.222,6.081,6.081,0,0,0,.227-.884l.208-1.2h4.493a3.307,3.307,0,0,1,2.4,1.01,3.4,3.4,0,0,1,.957,2.386Zm-11.739-2.9h8.84V324.6a.459.459,0,0,0-.454-.493h-2.14c-.014.043-.029.092-.043.135a13.067,13.067,0,0,1-1.618,2.918,75.156,75.156,0,0,1-5.372,6.623L90,334.944l-1.068-1.169a72.706,72.706,0,0,1-5.372-6.623,12.993,12.993,0,0,1-1.613-2.913c-.015-.048-.034-.092-.048-.14H80a.592.592,0,0,0-.6.493v16.763a.586.586,0,0,0,.6.473h3.174a4.591,4.591,0,0,1,8.686,0Z" transform="translate(695.586 348.666)" fill="#e00800" stroke="#fff" stroke-width="0.5"/>
    <path id="Path_24747" data-name="Path 24747" d="M647.989,693.083a4.594,4.594,0,0,1-4.589-4.589v-.068a4.59,4.59,0,0,1,9.179,0v.068A4.594,4.594,0,0,1,647.989,693.083ZM646.3,688.5a1.691,1.691,0,0,0,3.381,0v-.024a1.691,1.691,0,0,0-3.381,0Z" transform="translate(156.072 3.488)" fill="#e00800" stroke="#fff" stroke-width="0.5"/>
    <path id="Path_24748" data-name="Path 24748" d="M595.374,415.151h-8.4l-.015-1.435a1.691,1.691,0,0,0-3.382,0l-.014,1.435H577.5V395.2h11.125l6.749,8.444Zm-5.753-2.9h2.855v-7.589l-5.241-6.565H580.4v14.154h.531a4.587,4.587,0,0,1,7.57-1.778A4.65,4.65,0,0,1,589.621,412.253Z" transform="translate(218.789 278.24)" fill="#e00800" stroke="#fff" stroke-width="0.5"/>
    <path id="Path_24749" data-name="Path 24749" d="M214.189,693.179a4.593,4.593,0,0,1-4.589-4.589v-.068a4.59,4.59,0,0,1,9.179,0v.068A4.592,4.592,0,0,1,214.189,693.179Zm-1.691-4.584a1.691,1.691,0,0,0,3.382,0v-.024a1.691,1.691,0,0,0-3.382,0Z" transform="translate(568.916 3.393)" fill="#e00800" stroke="#fff" stroke-width="0.5"/>
    <rect id="Rectangle_3533" data-name="Rectangle 3533" width="16.076" height="2.01" transform="translate(799.527 680.994)" fill="#e00800" stroke="#fff" stroke-width="0.5"/>
    <path id="Path_24750" data-name="Path 24750" d="M292.808,266.415a3.208,3.208,0,1,1,3.208-3.208A3.212,3.212,0,0,1,292.808,266.415Zm0-3.512a.309.309,0,1,0,.309.309A.311.311,0,0,0,292.808,262.9Z" transform="translate(492.781 406.91)" fill="#bbbbba" stroke="#fff" stroke-width="0.5"/>
  </g>
</svg>
