<svg id="icn_language" xmlns="http://www.w3.org/2000/svg" width="18.002" height="18.002" viewBox="0 0 18.002 18.002">
  <g id="global">
    <path id="Vector" d="M0,0A21.418,21.418,0,0,0,1.1,6.751H.345" transform="translate(5.656 9.001)" fill="none" stroke="#e00800" stroke-linecap="round" stroke-linejoin="round" stroke-width="1.2"/>
    <path id="Vector-2" data-name="Vector" d="M.075,0h.75A21.57,21.57,0,0,0,0,3.345" transform="translate(5.926 2.25)" fill="none" stroke="#e00800" stroke-linecap="round" stroke-linejoin="round" stroke-width="1.2"/>
    <path id="Vector-3" data-name="Vector" d="M.848,0A21.794,21.794,0,0,1,0,3.48" transform="translate(11.251 12.271)" fill="none" stroke="#e00800" stroke-linecap="round" stroke-linejoin="round" stroke-width="1.2"/>
    <path id="Vector-4" data-name="Vector" d="M0,0A21.418,21.418,0,0,1,1.1,6.751" transform="translate(11.251 2.25)" fill="none" stroke="#e00800" stroke-linecap="round" stroke-linejoin="round" stroke-width="1.2"/>
    <path id="Vector-5" data-name="Vector" d="M0,.75V0A21.32,21.32,0,0,0,13.5,0V.75" transform="translate(2.25 11.251)" fill="none" stroke="#e00800" stroke-linecap="round" stroke-linejoin="round" stroke-width="1.2"/>
    <path id="Vector-6" data-name="Vector" d="M0,1.1a21.32,21.32,0,0,1,13.5,0" transform="translate(2.25 5.654)" fill="none" stroke="#e00800" stroke-linecap="round" stroke-linejoin="round" stroke-width="1.2"/>
    <path id="Vector-7" data-name="Vector" d="M0,0H18V18H0Z" fill="none" opacity="0"/>
    <path id="Vector-8" data-name="Vector" d="M15,7.5A7.5,7.5,0,1,1,7.5,0,7.5,7.5,0,0,1,15,7.5Z" transform="translate(1.5 1.5)" fill="none" stroke="#0a0a0a" stroke-linecap="round" stroke-linejoin="round" stroke-width="1.2"/>
  </g>
</svg>
